<mxfile host="app.diagrams.net" agent="Mozilla/5.0 (Windows NT 10.0; Win64; x64) AppleWebKit/537.36 (KHTML, like Gecko) Chrome/129.0.0.0 Safari/537.36 Edg/129.0.0.0" version="24.7.17">
  <diagram name="Page-1" id="sX6lFtNCw-vCXYBi-t7u">
    <mxGraphModel dx="1394" dy="758" grid="1" gridSize="10" guides="1" tooltips="1" connect="1" arrows="1" fold="1" page="1" pageScale="1" pageWidth="850" pageHeight="1100" math="0" shadow="0">
      <root>
        <mxCell id="0" />
        <mxCell id="1" parent="0" />
        <mxCell id="771jfGkth8GCVD4UJMPt-19" value="Customers" style="shape=table;startSize=30;container=1;collapsible=0;childLayout=tableLayout;fontStyle=1" vertex="1" parent="1">
          <mxGeometry x="30" y="30" width="380" height="234" as="geometry" />
        </mxCell>
        <mxCell id="771jfGkth8GCVD4UJMPt-20" value="" style="shape=tableRow;horizontal=0;startSize=0;swimlaneHead=0;swimlaneBody=0;strokeColor=inherit;top=0;left=0;bottom=0;right=0;collapsible=0;dropTarget=0;fillColor=none;points=[[0,0.5],[1,0.5]];portConstraint=eastwest;" vertex="1" parent="771jfGkth8GCVD4UJMPt-19">
          <mxGeometry y="30" width="380" height="40" as="geometry" />
        </mxCell>
        <mxCell id="771jfGkth8GCVD4UJMPt-21" value="&lt;b&gt;PK&lt;/b&gt;" style="shape=partialRectangle;html=1;whiteSpace=wrap;connectable=0;strokeColor=inherit;overflow=hidden;fillColor=none;top=0;left=0;bottom=0;right=0;pointerEvents=1;" vertex="1" parent="771jfGkth8GCVD4UJMPt-20">
          <mxGeometry width="40" height="40" as="geometry">
            <mxRectangle width="40" height="40" as="alternateBounds" />
          </mxGeometry>
        </mxCell>
        <mxCell id="771jfGkth8GCVD4UJMPt-22" value="&lt;b&gt;Customer_ID INT AUTO_INCREMENT&lt;/b&gt;" style="shape=partialRectangle;html=1;whiteSpace=wrap;connectable=0;strokeColor=inherit;overflow=hidden;fillColor=none;top=0;left=0;bottom=0;right=0;pointerEvents=1;" vertex="1" parent="771jfGkth8GCVD4UJMPt-20">
          <mxGeometry x="40" width="340" height="40" as="geometry">
            <mxRectangle width="340" height="40" as="alternateBounds" />
          </mxGeometry>
        </mxCell>
        <mxCell id="771jfGkth8GCVD4UJMPt-23" value="" style="shape=tableRow;horizontal=0;startSize=0;swimlaneHead=0;swimlaneBody=0;strokeColor=inherit;top=0;left=0;bottom=0;right=0;collapsible=0;dropTarget=0;fillColor=none;points=[[0,0.5],[1,0.5]];portConstraint=eastwest;" vertex="1" parent="771jfGkth8GCVD4UJMPt-19">
          <mxGeometry y="70" width="380" height="164" as="geometry" />
        </mxCell>
        <mxCell id="771jfGkth8GCVD4UJMPt-24" value="" style="shape=partialRectangle;html=1;whiteSpace=wrap;connectable=0;strokeColor=inherit;overflow=hidden;fillColor=none;top=0;left=0;bottom=0;right=0;pointerEvents=1;" vertex="1" parent="771jfGkth8GCVD4UJMPt-23">
          <mxGeometry width="40" height="164" as="geometry">
            <mxRectangle width="40" height="164" as="alternateBounds" />
          </mxGeometry>
        </mxCell>
        <mxCell id="771jfGkth8GCVD4UJMPt-25" value="First_Name VARCHAR (50) NOT NULL&lt;div&gt;&lt;br&gt;&lt;/div&gt;&lt;div&gt;Last_Name VARCHAR (50) NOT NULL&lt;br&gt;&lt;/div&gt;&lt;div&gt;&lt;br&gt;&lt;/div&gt;&lt;div&gt;Phone_Number VARCHAR (20) NOT NULL, UNIQUE&lt;br&gt;&lt;/div&gt;&lt;div&gt;&lt;br&gt;&lt;/div&gt;&lt;div&gt;&lt;div&gt;Email_Address VARCHAR (100) UNIQUE&lt;/div&gt;&lt;/div&gt;" style="shape=partialRectangle;html=1;whiteSpace=wrap;connectable=0;strokeColor=inherit;overflow=hidden;fillColor=none;top=0;left=0;bottom=0;right=0;pointerEvents=1;" vertex="1" parent="771jfGkth8GCVD4UJMPt-23">
          <mxGeometry x="40" width="340" height="164" as="geometry">
            <mxRectangle width="340" height="164" as="alternateBounds" />
          </mxGeometry>
        </mxCell>
        <mxCell id="771jfGkth8GCVD4UJMPt-27" value="Pets" style="shape=table;startSize=30;container=1;collapsible=0;childLayout=tableLayout;fontStyle=1" vertex="1" parent="1">
          <mxGeometry x="540" y="30" width="310" height="308" as="geometry" />
        </mxCell>
        <mxCell id="771jfGkth8GCVD4UJMPt-28" value="" style="shape=tableRow;horizontal=0;startSize=0;swimlaneHead=0;swimlaneBody=0;strokeColor=inherit;top=0;left=0;bottom=0;right=0;collapsible=0;dropTarget=0;fillColor=none;points=[[0,0.5],[1,0.5]];portConstraint=eastwest;" vertex="1" parent="771jfGkth8GCVD4UJMPt-27">
          <mxGeometry y="30" width="310" height="40" as="geometry" />
        </mxCell>
        <mxCell id="771jfGkth8GCVD4UJMPt-29" value="&lt;b&gt;PK&lt;/b&gt;" style="shape=partialRectangle;html=1;whiteSpace=wrap;connectable=0;strokeColor=inherit;overflow=hidden;fillColor=none;top=0;left=0;bottom=0;right=0;pointerEvents=1;" vertex="1" parent="771jfGkth8GCVD4UJMPt-28">
          <mxGeometry width="40" height="40" as="geometry">
            <mxRectangle width="40" height="40" as="alternateBounds" />
          </mxGeometry>
        </mxCell>
        <mxCell id="771jfGkth8GCVD4UJMPt-30" value="&lt;b&gt;Pet_ID INT AUTO_INCREMENT&lt;/b&gt;" style="shape=partialRectangle;html=1;whiteSpace=wrap;connectable=0;strokeColor=inherit;overflow=hidden;fillColor=none;top=0;left=0;bottom=0;right=0;pointerEvents=1;" vertex="1" parent="771jfGkth8GCVD4UJMPt-28">
          <mxGeometry x="40" width="270" height="40" as="geometry">
            <mxRectangle width="270" height="40" as="alternateBounds" />
          </mxGeometry>
        </mxCell>
        <mxCell id="771jfGkth8GCVD4UJMPt-31" value="" style="shape=tableRow;horizontal=0;startSize=0;swimlaneHead=0;swimlaneBody=0;strokeColor=inherit;top=0;left=0;bottom=0;right=0;collapsible=0;dropTarget=0;fillColor=none;points=[[0,0.5],[1,0.5]];portConstraint=eastwest;" vertex="1" parent="771jfGkth8GCVD4UJMPt-27">
          <mxGeometry y="70" width="310" height="238" as="geometry" />
        </mxCell>
        <mxCell id="771jfGkth8GCVD4UJMPt-32" value="&lt;b&gt;FK&lt;/b&gt;&lt;div&gt;&lt;b&gt;&lt;br&gt;&lt;/b&gt;&lt;/div&gt;&lt;div&gt;&lt;b&gt;&lt;br&gt;&lt;/b&gt;&lt;/div&gt;&lt;div&gt;&lt;b&gt;&lt;br&gt;&lt;/b&gt;&lt;/div&gt;&lt;div&gt;&lt;b&gt;&lt;br&gt;&lt;/b&gt;&lt;/div&gt;&lt;div&gt;&lt;b&gt;&lt;br&gt;&lt;/b&gt;&lt;/div&gt;&lt;div&gt;&lt;b&gt;&lt;br&gt;&lt;/b&gt;&lt;/div&gt;" style="shape=partialRectangle;html=1;whiteSpace=wrap;connectable=0;strokeColor=inherit;overflow=hidden;fillColor=none;top=0;left=0;bottom=0;right=0;pointerEvents=1;" vertex="1" parent="771jfGkth8GCVD4UJMPt-31">
          <mxGeometry width="40" height="238" as="geometry">
            <mxRectangle width="40" height="238" as="alternateBounds" />
          </mxGeometry>
        </mxCell>
        <mxCell id="771jfGkth8GCVD4UJMPt-33" value="Customer_ID&amp;nbsp;INT, NOT NULL&lt;div&gt;&lt;br&gt;&lt;/div&gt;&lt;div&gt;Pet_Name VARCHAR (50) NOT NULL&lt;/div&gt;&lt;div&gt;&lt;br&gt;&lt;/div&gt;&lt;div&gt;Species VARCHAR (50) NOT NULL&lt;br&gt;&lt;/div&gt;&lt;div&gt;&lt;br&gt;&lt;/div&gt;&lt;div&gt;Breed VARCHAR (50)&amp;nbsp;&lt;br&gt;&lt;/div&gt;&lt;div&gt;&lt;br&gt;&lt;/div&gt;&lt;div&gt;DOB DATE NOT NULL&lt;/div&gt;&lt;div&gt;&lt;br&gt;&lt;/div&gt;&lt;div&gt;Gender VARCHAR (10) NOT NULL, CHECK (Gender IN (&#39;Male&#39;, Female&#39;, &quot;Other&#39;))&lt;/div&gt;&lt;div&gt;&lt;br&gt;&lt;/div&gt;&lt;div&gt;Weight DECIMAL (5,2) NOT NULL, CHECK (Weight &amp;gt; 0)&lt;/div&gt;" style="shape=partialRectangle;html=1;whiteSpace=wrap;connectable=0;strokeColor=inherit;overflow=hidden;fillColor=none;top=0;left=0;bottom=0;right=0;pointerEvents=1;" vertex="1" parent="771jfGkth8GCVD4UJMPt-31">
          <mxGeometry x="40" width="270" height="238" as="geometry">
            <mxRectangle width="270" height="238" as="alternateBounds" />
          </mxGeometry>
        </mxCell>
        <mxCell id="771jfGkth8GCVD4UJMPt-34" value="Services" style="shape=table;startSize=30;container=1;collapsible=0;childLayout=tableLayout;fontStyle=1" vertex="1" parent="1">
          <mxGeometry x="30" y="320" width="410" height="220" as="geometry" />
        </mxCell>
        <mxCell id="771jfGkth8GCVD4UJMPt-35" value="" style="shape=tableRow;horizontal=0;startSize=0;swimlaneHead=0;swimlaneBody=0;strokeColor=inherit;top=0;left=0;bottom=0;right=0;collapsible=0;dropTarget=0;fillColor=none;points=[[0,0.5],[1,0.5]];portConstraint=eastwest;" vertex="1" parent="771jfGkth8GCVD4UJMPt-34">
          <mxGeometry y="30" width="410" height="43" as="geometry" />
        </mxCell>
        <mxCell id="771jfGkth8GCVD4UJMPt-36" value="&lt;b&gt;PK&lt;/b&gt;" style="shape=partialRectangle;html=1;whiteSpace=wrap;connectable=0;strokeColor=inherit;overflow=hidden;fillColor=none;top=0;left=0;bottom=0;right=0;pointerEvents=1;" vertex="1" parent="771jfGkth8GCVD4UJMPt-35">
          <mxGeometry width="40" height="43" as="geometry">
            <mxRectangle width="40" height="43" as="alternateBounds" />
          </mxGeometry>
        </mxCell>
        <mxCell id="771jfGkth8GCVD4UJMPt-37" value="&lt;b&gt;Service_ID INT AUTO_INCREMENT&lt;/b&gt;" style="shape=partialRectangle;html=1;whiteSpace=wrap;connectable=0;strokeColor=inherit;overflow=hidden;fillColor=none;top=0;left=0;bottom=0;right=0;pointerEvents=1;" vertex="1" parent="771jfGkth8GCVD4UJMPt-35">
          <mxGeometry x="40" width="370" height="43" as="geometry">
            <mxRectangle width="370" height="43" as="alternateBounds" />
          </mxGeometry>
        </mxCell>
        <mxCell id="771jfGkth8GCVD4UJMPt-38" value="" style="shape=tableRow;horizontal=0;startSize=0;swimlaneHead=0;swimlaneBody=0;strokeColor=inherit;top=0;left=0;bottom=0;right=0;collapsible=0;dropTarget=0;fillColor=none;points=[[0,0.5],[1,0.5]];portConstraint=eastwest;" vertex="1" parent="771jfGkth8GCVD4UJMPt-34">
          <mxGeometry y="73" width="410" height="147" as="geometry" />
        </mxCell>
        <mxCell id="771jfGkth8GCVD4UJMPt-39" value="" style="shape=partialRectangle;html=1;whiteSpace=wrap;connectable=0;strokeColor=inherit;overflow=hidden;fillColor=none;top=0;left=0;bottom=0;right=0;pointerEvents=1;" vertex="1" parent="771jfGkth8GCVD4UJMPt-38">
          <mxGeometry width="40" height="147" as="geometry">
            <mxRectangle width="40" height="147" as="alternateBounds" />
          </mxGeometry>
        </mxCell>
        <mxCell id="771jfGkth8GCVD4UJMPt-40" value="Service_Name VARCHAR (100) NOT NULL, UNIQUE&lt;div&gt;&lt;br&gt;&lt;/div&gt;&lt;div&gt;Price DECIMAL (6,2) NOT NULL, CHECK (Price &amp;gt; 0)&lt;/div&gt;&lt;div&gt;&lt;br&gt;&lt;/div&gt;&lt;div&gt;Category VARCHAR (50) NOT NULL, CHECK (Category IN (&#39;Grooming, &#39;Boarding&#39;, &#39;Training&#39;, &#39;Walking&#39;)&lt;/div&gt;" style="shape=partialRectangle;html=1;whiteSpace=wrap;connectable=0;strokeColor=inherit;overflow=hidden;fillColor=none;top=0;left=0;bottom=0;right=0;pointerEvents=1;" vertex="1" parent="771jfGkth8GCVD4UJMPt-38">
          <mxGeometry x="40" width="370" height="147" as="geometry">
            <mxRectangle width="370" height="147" as="alternateBounds" />
          </mxGeometry>
        </mxCell>
        <mxCell id="771jfGkth8GCVD4UJMPt-41" value="Appointments" style="shape=table;startSize=30;container=1;collapsible=0;childLayout=tableLayout;fontStyle=1" vertex="1" parent="1">
          <mxGeometry x="540" y="400" width="380" height="280" as="geometry" />
        </mxCell>
        <mxCell id="771jfGkth8GCVD4UJMPt-42" value="" style="shape=tableRow;horizontal=0;startSize=0;swimlaneHead=0;swimlaneBody=0;strokeColor=inherit;top=0;left=0;bottom=0;right=0;collapsible=0;dropTarget=0;fillColor=none;points=[[0,0.5],[1,0.5]];portConstraint=eastwest;" vertex="1" parent="771jfGkth8GCVD4UJMPt-41">
          <mxGeometry y="30" width="380" height="44" as="geometry" />
        </mxCell>
        <mxCell id="771jfGkth8GCVD4UJMPt-43" value="&lt;b&gt;PK&lt;/b&gt;" style="shape=partialRectangle;html=1;whiteSpace=wrap;connectable=0;strokeColor=inherit;overflow=hidden;fillColor=none;top=0;left=0;bottom=0;right=0;pointerEvents=1;" vertex="1" parent="771jfGkth8GCVD4UJMPt-42">
          <mxGeometry width="40" height="44" as="geometry">
            <mxRectangle width="40" height="44" as="alternateBounds" />
          </mxGeometry>
        </mxCell>
        <mxCell id="771jfGkth8GCVD4UJMPt-44" value="&lt;b&gt;Appointment_ID INT AUTO_INCREMENT&lt;/b&gt;" style="shape=partialRectangle;html=1;whiteSpace=wrap;connectable=0;strokeColor=inherit;overflow=hidden;fillColor=none;top=0;left=0;bottom=0;right=0;pointerEvents=1;" vertex="1" parent="771jfGkth8GCVD4UJMPt-42">
          <mxGeometry x="40" width="340" height="44" as="geometry">
            <mxRectangle width="340" height="44" as="alternateBounds" />
          </mxGeometry>
        </mxCell>
        <mxCell id="771jfGkth8GCVD4UJMPt-45" value="" style="shape=tableRow;horizontal=0;startSize=0;swimlaneHead=0;swimlaneBody=0;strokeColor=inherit;top=0;left=0;bottom=0;right=0;collapsible=0;dropTarget=0;fillColor=none;points=[[0,0.5],[1,0.5]];portConstraint=eastwest;" vertex="1" parent="771jfGkth8GCVD4UJMPt-41">
          <mxGeometry y="74" width="380" height="206" as="geometry" />
        </mxCell>
        <mxCell id="771jfGkth8GCVD4UJMPt-46" value="&lt;div&gt;&lt;b style=&quot;background-color: initial;&quot;&gt;FK&lt;/b&gt;&lt;br&gt;&lt;/div&gt;&lt;div&gt;&lt;b&gt;&lt;br&gt;&lt;/b&gt;&lt;/div&gt;&lt;div&gt;&lt;b&gt;FK&lt;/b&gt;&lt;/div&gt;&lt;div&gt;&lt;b&gt;&lt;br&gt;&lt;/b&gt;&lt;/div&gt;&lt;div&gt;&lt;b&gt;&lt;br&gt;&lt;/b&gt;&lt;/div&gt;&lt;div&gt;&lt;b&gt;&lt;br&gt;&lt;/b&gt;&lt;/div&gt;&lt;div&gt;&lt;b&gt;&lt;br&gt;&lt;/b&gt;&lt;/div&gt;&lt;div&gt;&lt;b&gt;&lt;br&gt;&lt;/b&gt;&lt;/div&gt;&lt;div&gt;&lt;b&gt;&lt;br&gt;&lt;/b&gt;&lt;/div&gt;&lt;div&gt;&lt;b&gt;&lt;br&gt;&lt;/b&gt;&lt;/div&gt;&lt;div&gt;&lt;b&gt;&lt;br&gt;&lt;/b&gt;&lt;/div&gt;&lt;div&gt;&lt;b&gt;&lt;br&gt;&lt;/b&gt;&lt;/div&gt;" style="shape=partialRectangle;html=1;whiteSpace=wrap;connectable=0;strokeColor=inherit;overflow=hidden;fillColor=none;top=0;left=0;bottom=0;right=0;pointerEvents=1;" vertex="1" parent="771jfGkth8GCVD4UJMPt-45">
          <mxGeometry width="40" height="206" as="geometry">
            <mxRectangle width="40" height="206" as="alternateBounds" />
          </mxGeometry>
        </mxCell>
        <mxCell id="771jfGkth8GCVD4UJMPt-47" value="&lt;div&gt;Pet_ID INT, NOT NULL&lt;/div&gt;&lt;div&gt;&lt;span style=&quot;background-color: initial;&quot;&gt;&lt;br&gt;&lt;/span&gt;&lt;/div&gt;&lt;div&gt;&lt;span style=&quot;background-color: initial;&quot;&gt;Service_ID INT, NOT NULL&lt;/span&gt;&lt;br&gt;&lt;/div&gt;&lt;div&gt;&lt;span style=&quot;background-color: initial;&quot;&gt;&lt;br&gt;&lt;/span&gt;&lt;/div&gt;&lt;div&gt;Appointment_Date DATE, NOT NULL&lt;/div&gt;&lt;div&gt;&lt;br&gt;&lt;/div&gt;&lt;div&gt;Appointment_Time TIME, NOT NULL&lt;/div&gt;&lt;div&gt;&lt;br&gt;&lt;/div&gt;&lt;div&gt;Status VARCHAR (20), NOT NULL, DEFAULT &#39;Scheduled, CHECK (Status IN (&#39;Scheduled&#39;, &#39;Completed&#39;, &#39;Canceled&#39;))&lt;/div&gt;&lt;div&gt;&lt;br&gt;&lt;/div&gt;&lt;div&gt;Notes TEXT&amp;nbsp;&lt;/div&gt;" style="shape=partialRectangle;html=1;whiteSpace=wrap;connectable=0;strokeColor=inherit;overflow=hidden;fillColor=none;top=0;left=0;bottom=0;right=0;pointerEvents=1;" vertex="1" parent="771jfGkth8GCVD4UJMPt-45">
          <mxGeometry x="40" width="340" height="206" as="geometry">
            <mxRectangle width="340" height="206" as="alternateBounds" />
          </mxGeometry>
        </mxCell>
        <mxCell id="771jfGkth8GCVD4UJMPt-48" value="" style="edgeStyle=entityRelationEdgeStyle;fontSize=12;html=1;endArrow=ERoneToMany;startArrow=ERzeroToOne;rounded=0;exitX=1;exitY=0.5;exitDx=0;exitDy=0;" edge="1" parent="1" source="771jfGkth8GCVD4UJMPt-28" target="771jfGkth8GCVD4UJMPt-45">
          <mxGeometry width="100" height="100" relative="1" as="geometry">
            <mxPoint x="880" y="350" as="sourcePoint" />
            <mxPoint x="580" y="370" as="targetPoint" />
          </mxGeometry>
        </mxCell>
        <mxCell id="771jfGkth8GCVD4UJMPt-50" value="" style="edgeStyle=entityRelationEdgeStyle;fontSize=12;html=1;endArrow=ERoneToMany;startArrow=ERzeroToOne;rounded=0;exitX=1;exitY=0.5;exitDx=0;exitDy=0;entryX=0;entryY=0.5;entryDx=0;entryDy=0;" edge="1" parent="1" source="771jfGkth8GCVD4UJMPt-20" target="771jfGkth8GCVD4UJMPt-31">
          <mxGeometry width="100" height="100" relative="1" as="geometry">
            <mxPoint x="500" y="230" as="sourcePoint" />
            <mxPoint x="600" y="130" as="targetPoint" />
          </mxGeometry>
        </mxCell>
        <mxCell id="771jfGkth8GCVD4UJMPt-51" value="" style="edgeStyle=entityRelationEdgeStyle;fontSize=12;html=1;endArrow=ERoneToMany;startArrow=ERzeroToOne;rounded=0;exitX=1;exitY=0.5;exitDx=0;exitDy=0;" edge="1" parent="1" source="771jfGkth8GCVD4UJMPt-35" target="771jfGkth8GCVD4UJMPt-45">
          <mxGeometry width="100" height="100" relative="1" as="geometry">
            <mxPoint x="500" y="520" as="sourcePoint" />
            <mxPoint x="600" y="420" as="targetPoint" />
          </mxGeometry>
        </mxCell>
      </root>
    </mxGraphModel>
  </diagram>
</mxfile>
